<?xml version="1.0" encoding="UTF-8"?>
<svg width="381.31" height="378.51" version="1.1" viewBox="0 0 381.31141 378.51178" xmlns="http://www.w3.org/2000/svg">
 <defs>
  <linearGradient id="e" x1="328.08" x2="346.86" y1="427.13" y2="450.64" gradientUnits="userSpaceOnUse">
   <stop stop-color="#e9e9a1" offset="0"/>
   <stop stop-color="#dcdc60" offset="1"/>
  </linearGradient>
  <filter id="a" x="0" y="0" width="1" height="1" color-interpolation-filters="sRGB">
   <feGaussianBlur in="SourceGraphic" result="result0" stdDeviation="6"/>
   <feDiffuseLighting lighting-color="#ffffff" result="result5" surfaceScale="4">
    <feDistantLight azimuth="235" elevation="45"/>
   </feDiffuseLighting>
   <feComposite in="result5" in2="SourceGraphic" k1="1.4" operator="arithmetic" result="fbSourceGraphic"/>
   <feGaussianBlur in="fbSourceGraphic" result="result0" stdDeviation="6"/>
   <feSpecularLighting lighting-color="#f4d8d8" in="result0" result="result1" specularExponent="25" surfaceScale="4">
    <feDistantLight azimuth="235" elevation="45"/>
   </feSpecularLighting>
   <feComposite in="fbSourceGraphic" in2="result1" k2="1" k3="1" operator="arithmetic" result="result4"/>
   <feComposite in="result4" in2="SourceGraphic" operator="in" result="result2"/>
  </filter>
  <linearGradient id="f" x1="283.96" x2="350.92" y1="445.63" y2="516.63" gradientTransform="matrix(.9929 0 0 1.0033 -275.59 -58.85)" gradientUnits="userSpaceOnUse">
   <stop stop-color="#e30000" offset="0"/>
   <stop stop-color="#eb0000" offset=".42442"/>
   <stop stop-color="#f30000" offset="1"/>
  </linearGradient>
  <radialGradient id="g" cx="49.023" cy="617.36" r="90.419" gradientTransform="matrix(.9955 0 0 .79303 15.098 -241.34)" gradientUnits="userSpaceOnUse">
   <stop stop-color="#f30000" offset="0"/>
   <stop stop-color="#eb0000" offset=".61116"/>
   <stop stop-color="#e30000" offset="1"/>
  </radialGradient>
 </defs>
 <g transform="translate(-181.39 -336.93)" image-rendering="auto">
  <flowRoot fill="#e9e9a1" font-family="Andy" font-size="45px" font-stretch="semi-condensed" font-weight="bold" stroke="#a20000" text-align="center" text-anchor="middle" style="line-height:125%">
   <flowRegion>
    <rect x="382" y="35" width="287" height="165"/>
   </flowRegion>
   <flowPara/>
  </flowRoot>
  <g transform="translate(11.011 -4.1572e-6)">
   <g transform="matrix(.85295 -.52199 .52199 .85295 -219.95 271.58)">
    <g transform="translate(152.21 171.86)" fill-rule="evenodd">
     <path d="m69.839 241.82v225h243.75l56.251-42.188v-182.81z" fill="#ff9"/>
     <path d="m313.59 466.82c4.2646-13.748 8.3822-27.537 14.558-40.739 5.6503 7.2051 20.599 7.1585 41.693-1.4491z" fill="url(#e)"/>
    </g>
    <g transform="matrix(.9936 0 0 1.0497 -291.43 11.968)">
     <path d="m589.03 475.15q-0.4834-5.3613-0.4834-6.416 0-1.8018 1.5381-3.252 1.5381-1.4941 3.3398-1.4941 2.1533 0 3.7354 1.0986 1.582 1.0547 1.582 2.6807 0 1.0547-0.21972 6.0644-0.26368 6.7236-0.26368 8.6133 0 1.2305 0.57129 12.568 0.61524 11.294 1.3184 21.357 0 5.3174-4.5703 5.3174-4.3066 0-4.3066-6.0644 0-0.26367 0-0.52734 0 0-0.0879 0.0439-3.208 2.5928-7.6465 4.1309-4.3945 1.4941-9.0527 1.4941-8.4814 0-13.052-5.2734-4.5703-5.3174-4.5703-13.887 0-1.2305 0.4834-6.2402 0.61523-6.6797 0.61523-9.3604 0-2.417-0.21972-8.877-0.13184-4.3066-0.13184-5.4053 0-2.1973 1.7578-3.5156 1.8018-1.3623 4.3506-1.3623 2.0654 0 3.3838 1.2744 1.3623 1.2744 1.3623 3.0762 0 1.3623-1.3623 11.953-1.0547 8.2617-1.0547 18.193 0 5.7568 3.0322 8.9209 3.0322 3.1201 8.7891 3.1201 3.3838 0 8.2178-4.3506 1.0547-0.92285 4.3506-2.9443 0-10.723-0.26367-16.084-0.26367-5.3613-1.1426-14.854z"/>
     <path d="m610.26 495.1q-1.1426 0-1.9775-0.9668-0.83496-1.0107-0.83496-2.2412 0-0.61523 1.1865-2.3291 0.61523-0.87891 0.79101-1.2744l-0.26367-5.1416q0-2.373 1.4941-3.7354 1.5381-1.4062 4.1748-1.4062 1.626 0 3.0322 0.92285 1.4062 0.87891 1.4062 1.9775 1.1865-1.8896 3.6035-1.8896 3.0322 0 7.9541 3.6914 4.9658 3.6475 8.042 8.3936 3.0762 4.7021 3.0762 8.9648 0 4.5703-5.5371 10.415-5.4932 5.8008-15.029 11.646-0.26367 0.17578-0.30762 0.17578 0.87891 16.26 0.87891 17.095 0 1.8018-1.3623 3.0322-1.3184 1.2744-3.208 1.2744-4.9658 0-4.9658-6.1963 0-1.3184 0.13183-5.0098 0.21973-4.9219 0.21973-7.251 0-3.999-1.3184-16.216-1.1865-10.811-1.1865-13.931zm9.0088-4.1309q0 1.9336 0.0879 5.4053 0.0879 3.7793 0.0879 6.0205 0 2.6367 0.57128 8.9209 0.30762 3.252 0.30762 3.9551 1.2305 0 4.2627-2.8564 3.0762-2.9004 4.9219-6.1084 1.8896-3.208 1.8896-5.8008 0-2.9004-1.3623-6.2402-1.3184-3.3398-3.3838-5.8887-2.0654-2.5488-3.4277-2.5488-1.626 0-2.8125 1.6699-1.1426 1.6699-1.1426 3.4717z"/>
     <path d="m679.43 461.44q0 8.1299 0.3955 19.072 0.30762 8.2178 0.9668 12.876 0.65918 4.6143 2.5928 15.117 1.626 8.7891 1.626 9.9316 0 2.2852-1.0986 3.0762-1.0547 0.79102-3.5156 0.79102-2.0215 0-3.0322-0.61524-1.0107-0.57129-1.2305-1.7139-0.0879-0.4834-0.35156-2.1094-0.26368-1.6699-0.83496-4.9219-0.35157 2.2412-3.7354 3.5596-3.3398 1.2744-8.1738 1.2744-7.207 0-11.646-3.6914-4.4385-3.7354-4.4385-8.7891 0-10.02 8.7451-17.446 3.6035-3.0322 8.2178-5.1855 4.6143-2.1973 6.5039-2.1973-0.0879-1.0107-0.79102-6.5478-1.2744-10.591-1.2744-11.558 0-1.8896 1.626-3.1201 1.6699-1.2744 4.5703-1.2744 4.8779 0 4.8779 3.4717zm-7.9541 30.806q-0.26368-3.6475-0.61524-5.6689-0.87891 1.3623-3.0322 1.7139-0.30761 0.0439-0.43945 0.0879-5.1416 2.1973-7.207 5.8008t-2.0654 9.4922q0 3.252 1.9336 5.8008t4.9658 2.5488q2.373 0 3.999-0.8789 1.626-0.92285 2.9443-3.3398 0.26368-0.8789 1.1865-1.1426-1.3184-9.7998-1.6699-14.414z"/>
     <path d="m689.27 515.28q0-7.6904 9.5801-15.337 1.1865-0.96679 3.3398-2.6807 2.1973-1.7139 4.3506-3.3398 2.1533-1.6699 3.252-1.8457-0.43946-2.7686-1.626-4.3945-1.1865-1.626-2.9443-1.626-1.7139 0-4.043 1.0986-2.2852 1.0547-3.5156 2.2852-1.7139 1.7139-2.373 1.7139-1.3623 0-2.7246-1.1426-1.3184-1.1426-1.3184-2.6367 0-2.0654 2.9443-3.6914t7.0312-3.0322q4.0869-1.4502 5.9766-1.4502 4.2627 0 7.0312 3.3838 2.8125 3.3398 4.5703 10.107 1.7139 5.4932 1.7139 15.205 0 4.3066-0.8789 8.3936-0.52735 2.5049-1.1426 2.9883-0.57129 0.43945-1.7139 0.74707-1.0986 0.30762-1.9336 0.30762-2.0215 0-3.2959-0.87891-1.2305-0.92285-1.2305-2.5488l0.30762-2.8125q-2.4609 2.8564-6.5039 4.6143-4.043 1.7139-7.8223 1.7139-7.0312 0-7.0312-5.1416zm21.357-17.007q-11.821 7.5586-11.821 13.403 0 2.0654 2.2412 2.0654 3.1641 0 6.5918-3.3398 0.74707-0.70313 1.9336-1.3623t1.3184-0.65918q0 0.0439 0 0.0439 0-6.7236-0.26367-10.151z"/>
     <path d="m731.5 489.61q-0.43945 0.0439-1.4062 0.13183-1.7578 0.17578-2.6367 0.17578-1.0986 0-1.9775-0.83496-0.83496-0.8789-0.83496-1.8018 0-1.582 0.79102-2.5928 0.79101-1.0107 2.1094-1.0107 0.61524 0 1.8018-0.21973 1.0547-0.21972 1.5381-0.21972 0-2.7246-0.74707-7.3828-0.57129-3.5596-0.57129-5.1855 0-1.8896 1.2744-3.0762 1.2744-1.1865 3.2959-1.1865 2.1973 0 3.6035 1.0986t1.4062 2.5928q0 0.65918 0.26367 3.7793 0.4834 5.8008 0.4834 8.1738 0.4834-0.0879 1.2305-0.35156 1.1426-0.43945 1.9775-0.43945 1.4502 0 2.417 1.0986 1.0107 1.0547 1.0107 2.5928 0 0.74707-0.30762 1.4062-0.30762 0.61524-0.83496 1.0547t-4.7022 1.2305q0 1.4502 0.26367 6.8994 0.26368 5.4492 0.43946 7.2949 0.21972 2.0215 0.52734 7.9541t0.30762 7.3828q0 1.3623-1.2744 2.5928-1.2744 1.2744-2.8564 1.2744-2.3291 0-3.9111-0.9668-0.74707-0.4834-1.1865-1.1426-0.3955-0.65918-0.61523-4.9219-0.35156-6.9873-0.35156-10.811 0-2.0215-0.30762-9.2725-0.21973-4.5264-0.21973-5.3174z"/>
     <path d="m783.32 502.97q0 2.9004-9.4482 10.063-0.30761 0.21972-1.3184 1.0107-8.042 6.46-9.9316 6.46-3.8232 0-6.3721-4.5703-2.5488-4.5703-2.5488-10.195v-1.5381q-0.65918 0.26367-1.8018 0.26367-0.57129 0-1.1426-0.83496-0.57129-0.87891-0.57129-1.6699 0-1.7578 0.57129-2.5488 0.61523-0.83496 2.7686-1.7578 0-4.79 1.0547-8.9648 1.0986-4.2188 2.9883-7.0752 1.8896-2.8564 3.3398-2.8564 4.043 0 7.7783 1.4502 3.7354 1.4502 6.2842 3.9111 2.5928 2.4609 2.5928 4.4385 0 2.3291-0.4834 3.4277-0.43945 1.0986-1.5381 2.0654-1.0547 0.92285-6.6797 3.999-5.5371 3.0762-6.3281 3.7354v2.1533q0 3.0762 0.92285 5.3613 0.92286 2.2852 2.0215 2.2852 1.8896 0 6.8994-5.2295 4.043-4.1748 5.3613-5.1416 1.3184-0.9668 2.417-0.9668 3.1641 0 3.1641 2.7246zm-18.545-16.479q-0.79101 0-1.626 2.9883-0.83496 2.9443-0.83496 5.0098 0.65918-0.35157 2.7686-1.3184 3.5596-1.626 4.3506-2.1973 0-1.4941-1.4062-2.9883t-3.252-1.4941z"/>
    </g>
   </g>
   <g transform="matrix(.23603 0 0 .2323 299.41 352.66)" stroke="#c30000" stroke-linecap="round" stroke-linejoin="round">
    <ellipse transform="matrix(.86539 -.50109 .49667 .86794 -105.1 269.48)" cx="63.9" cy="248.24" rx="89.514" ry="71.205" fill="url(#g)" filter="url(#a)" stroke-width="4.2707"/>
    <path d="m-48.751 375.7c20.309 0.88278 45.689 32.127 73.173 75.955 18.769 29.931 45.314 11.582 54.198 2.7927 8.315-8.2259 25.422-32.179-3.7292-51.99-42.685-29.009-72.934-55.508-73.173-75.955l-25.234 24.599z" fill="url(#f)" stroke-width="4.2706"/>
    <ellipse transform="matrix(.86539 -.50109 .49667 .86794 -105.1 269.48)" cx="32.698" cy="101.37" rx="71.611" ry="56.964" fill="#f30000" filter="url(#a)" stroke-width="4.2707"/>
   </g>
  </g>
 </g>
</svg>
