<?xml version='1.0' encoding='utf-8'?>
<svg xmlns="http://www.w3.org/2000/svg" width="194.733mm" height="194.733mm" version="1.1" style="shape-rendering:geometricPrecision; text-rendering:geometricPrecision; image-rendering:optimizeQuality; fill-rule:evenodd; clip-rule:evenodd" viewBox="0 0 19473 19473"> <defs> <style type="text/css">  .fil6 {fill:black} .fil4 {fill:#CC9933} .fil2 {fill:#D40202} .fil3 {fill:#D94747} .fil7 {fill:#E6E6E6} .fil1 {fill:white} .fil5 {fill:black;fill-rule:nonzero} .fil0 {fill:url(#id0)}  </style> <linearGradient id="id0" gradientUnits="userSpaceOnUse" x1="9736.67" y1="18304.9" x2="9736.67" y2="1168.4"> <stop offset="0" style="stop-opacity:1; stop-color:white"/> <stop offset="0.239216" style="stop-opacity:1; stop-color:#F3F3F3"/> <stop offset="1" style="stop-opacity:1; stop-color:#E6E6E6"/> </linearGradient> </defs> <g id="Layer_x0020_1"> <metadata id="CorelCorpID_0Corel-Layer"/> <g id="_810933696"> <rect class="fil0" width="19473" height="19473"/> <g> <path class="fil1" d="M9331 9816c651,658 1053,1562 1053,2561 0,1600 -1033,2959 -2467,3447l-2346 0c-1434,-488 -2467,-1847 -2467,-3447 0,-576 134,-1120 372,-1604 169,81 336,166 505,246 89,42 287,144 386,104 95,-39 93,-177 99,-263 11,-139 16,-287 -133,-356 -63,-30 -147,-40 -216,-46 -87,-8 -174,-10 -261,-17 -47,-4 -93,-8 -139,-16 -14,-2 -28,-4 -41,-7 121,-189 259,-366 412,-529 70,7 155,-7 216,-17 110,-18 219,-39 331,-44 119,-5 238,10 355,32 152,28 303,67 453,103 446,106 890,200 1346,249 21,2 43,4 64,7l4 18c1,1 1,3 2,5 74,325 111,673 43,1002 -33,163 -91,318 -143,475 -37,115 -88,276 -59,396 54,228 375,284 567,334 182,49 409,139 558,-29 49,-55 82,-127 106,-195l5 -13c174,21 373,44 480,-124 140,-219 98,-698 65,-943 -31,-226 -79,-453 -136,-675 -23,-88 -48,-176 -74,-264 17,-2 35,-5 52,-8 301,-48 725,-164 972,-352 12,-10 24,-20 36,-30zm-4258 -1290c-234,-349 -370,-769 -370,-1221 0,-278 51,-544 145,-788 55,-12 111,-33 152,-48 158,-56 312,-110 474,-157 392,-114 809,-199 1213,-256 153,-22 306,-39 460,-50 271,-20 540,-20 811,-13 108,3 216,7 323,9 82,2 165,3 246,-2 37,-3 81,-7 123,-18 278,368 443,826 443,1323 0,450 -135,869 -368,1217l-3 2c-59,29 -117,67 -174,102 -230,141 -455,258 -718,327 -51,13 -103,24 -155,34 -16,-17 -32,-33 -49,-49 -88,-84 -194,-156 -309,-194 -95,-31 -201,-41 -295,-5 -128,48 -197,154 -225,276 -297,-30 -587,-101 -864,-214 -118,-49 -232,-105 -348,-159 -95,-44 -200,-91 -304,-112 -69,-14 -140,-16 -208,-4z"/> <path class="fil2" d="M4679 8983c81,-93 110,-207 193,-293 84,-85 223,-142 398,-106 176,36 388,163 642,268 251,103 542,183 875,218 -7,62 -5,126 5,187 22,132 79,269 133,391 64,147 134,292 195,441 13,32 25,65 37,98 -122,-7 -243,-17 -362,-30 -514,-56 -986,-164 -1339,-248 -353,-85 -588,-146 -823,-136 -236,10 -473,91 -579,52 -106,-39 -81,-198 -14,-319 67,-121 177,-204 300,-282 122,-77 257,-148 339,-241zm3039 52c43,-8 85,-18 126,-29 318,-83 571,-234 733,-333 163,-100 234,-148 298,-115 65,32 122,145 133,258 11,112 -24,225 32,337 55,112 200,223 281,327 82,104 100,200 -60,322 -160,122 -499,269 -947,341 -19,4 -39,7 -59,10 -34,-110 -71,-218 -111,-325 -99,-262 -237,-569 -426,-793z"/> <path class="fil2" d="M6847 9248c-38,-228 46,-402 194,-457 148,-56 358,8 547,187 189,180 356,475 504,870 148,394 277,888 334,1305 56,416 40,754 -56,905 -96,151 -272,114 -495,92 -223,-22 -494,-30 -567,-207 -73,-177 52,-522 67,-868 16,-346 -77,-693 -204,-1006 -127,-314 -287,-594 -324,-821z"/> <path class="fil2" d="M6913 10230c76,329 113,686 43,1026 -70,339 -247,660 -202,846 44,186 310,237 527,294 217,57 384,121 503,-13 36,-41 68,-101 95,-177 -3,0 -6,-1 -9,-1 -198,-20 -523,-24 -613,-241 -47,-114 -22,-281 -3,-400 25,-164 58,-326 66,-492 12,-280 -49,-563 -142,-829 -89,-4 -178,-11 -267,-19 1,2 1,4 2,6z"/> <path class="fil3" d="M8623 8842c88,221 99,436 187,691 39,116 95,240 159,369 91,-40 184,-88 258,-144 41,-32 103,-85 100,-143 -2,-36 -28,-73 -49,-101 -89,-112 -225,-208 -288,-336 -64,-129 -25,-229 -37,-357 -6,-62 -44,-184 -103,-214 -3,-1 -6,-3 -9,-3 -44,-10 -197,93 -235,116 -10,6 -20,12 -30,19 17,34 33,69 47,103zm-806 228c164,218 285,489 379,739 35,93 67,187 97,282l12 -2c104,-17 207,-38 309,-66 -65,-208 -132,-405 -206,-582 -76,-180 -159,-338 -245,-486 -97,42 -198,77 -305,105l-41 10zm-1925 -166c-115,262 -304,548 -395,834 -13,38 -23,77 -32,116 1,0 3,0 4,1 261,62 522,120 785,167 -7,-209 26,-412 62,-622 19,-112 39,-227 59,-343 -164,-38 -326,-89 -483,-153zm-961 460c172,-245 350,-369 451,-534 25,-41 46,-84 63,-130 -61,-26 -124,-49 -186,-62 -124,-25 -256,-2 -347,91 -22,22 -40,48 -56,74 -46,75 -77,149 -136,217 -91,103 -234,178 -351,251 -108,69 -217,147 -281,262 -26,47 -93,211 -15,240 49,18 162,-2 213,-11 115,-18 228,-40 344,-45 31,-1 62,-1 92,0 69,-132 138,-253 209,-353zm2152 367c146,-75 292,-140 441,-182 116,-33 233,-52 351,-64 -68,-136 -148,-267 -240,-377 -96,7 -186,15 -268,27 -183,27 -330,71 -463,121 23,117 75,240 122,347 19,43 38,85 57,128zm484 476c-95,8 -184,25 -268,47 84,252 139,517 133,782 231,-38 449,-69 642,-86 92,-8 179,-13 261,-16 -27,-146 -60,-292 -98,-436 -24,-94 -50,-188 -79,-281 -201,-14 -407,-27 -591,-10zm419 1471c-226,-14 -435,-5 -638,14 -10,81 -13,171 11,230 7,16 16,31 28,44 93,106 357,115 494,129 100,10 286,43 377,-5 27,-14 48,-35 65,-62 45,-71 67,-183 75,-305 -142,-22 -280,-37 -412,-45zm-1121 76c-29,88 -80,243 -57,336 4,17 10,33 20,48 75,119 334,169 467,204 98,26 276,88 373,55 30,-10 54,-27 74,-51 23,-26 42,-58 58,-92 -219,-19 -502,-46 -594,-269 -17,-40 -26,-84 -29,-131 -104,-38 -205,-79 -305,-122 -2,7 -5,14 -7,22zm159 -560c71,11 141,23 207,36 6,1 13,2 19,3 7,-54 12,-108 14,-163 7,-147 -7,-294 -36,-439 -62,2 -126,1 -192,0 19,188 18,377 -12,563z"/> <path class="fil4" d="M7360 7040c237,-3 584,7 868,44 284,37 505,101 438,163 -67,63 -424,124 -762,174 -339,49 -660,88 -836,77 -177,-12 -209,-72 -219,-151 -9,-79 4,-175 74,-231 71,-56 199,-72 437,-76z"/> <path class="fil5" d="M8303 7924l-119 -88 0 -1 4 -4 3 -5 3 -4 3 -5 4 -4 3 -5 3 -4 3 -5 4 -4 3 -5 3 -5 3 -4 3 -5 3 -5 3 -4 3 -5 4 -5 3 -4 3 -5 3 -5 3 -5 3 -4 2 -5 3 -5 3 -5 127 76 -3 6 -3 5 -4 5 -3 6 -3 5 -3 5 -4 5 -3 6 -4 5 -3 5 -3 5 -4 5 -3 6 -4 5 -3 5 -4 5 -3 5 -4 5 -3 5 -4 5 -4 5 -3 5 -4 5 -4 5 -3 5 0 0zm-2582 -248l133 -65 2 5 3 5 3 6 3 6 3 6 3 6 3 6 3 6 3 6 3 5 3 6 3 6 4 6 3 5 3 6 3 6 4 5 3 6 3 6 4 5 3 6 2 3 -125 78 -3 -4 -4 -6 -3 -6 -4 -6 -4 -7 -3 -6 -4 -6 -4 -7 -3 -6 -4 -6 -3 -7 -4 -6 -3 -6 -4 -7 -3 -6 -4 -7 -3 -6 -3 -7 -4 -6 -3 -7 -3 -7 -2 -4zm163 264l117 -91 4 5 4 5 4 6 4 5 4 5 4 5 4 5 4 5 4 5 4 5 5 5 4 5 4 4 4 5 5 5 4 5 4 5 5 5 4 4 4 5 5 5 3 3 -107 102 -4 -4 -5 -5 -5 -5 -5 -6 -4 -5 -5 -5 -5 -6 -5 -5 -4 -5 -5 -6 -5 -5 -4 -6 -5 -5 -5 -6 -4 -5 -5 -6 -4 -5 -5 -6 -4 -6 -5 -5 -4 -6 -4 -5zm213 225l96 -112 3 2 5 4 5 4 5 5 5 4 5 4 5 4 5 4 5 4 5 4 5 4 5 4 5 4 5 4 5 3 6 4 5 4 5 4 5 4 5 3 6 4 5 4 1 1 -84 122 -2 -2 -6 -4 -6 -4 -5 -4 -6 -4 -6 -5 -6 -4 -5 -4 -6 -4 -6 -5 -5 -4 -6 -4 -6 -5 -5 -4 -6 -5 -5 -4 -6 -5 -5 -4 -6 -5 -5 -4 -6 -5 -5 -4 -3 -3zm255 178l71 -130 6 3 5 3 6 3 6 3 5 3 6 3 6 3 5 3 6 3 6 3 6 2 5 3 6 3 6 3 6 3 6 2 6 3 6 3 5 2 6 3 6 2 6 3 -58 136 -6 -3 -7 -3 -6 -3 -7 -2 -6 -3 -7 -3 -6 -3 -7 -3 -6 -3 -7 -4 -6 -3 -7 -3 -6 -3 -6 -3 -7 -3 -6 -4 -6 -3 -7 -3 -6 -4 -6 -3 -7 -4 -5 -2zm286 121l43 -141 3 1 6 2 6 2 7 2 6 1 6 2 7 2 6 2 6 1 6 2 7 2 6 1 6 2 7 1 6 2 6 1 7 2 6 1 7 2 6 1 6 1 7 2 0 0 -29 145 0 0 -7 -2 -8 -1 -7 -2 -7 -1 -7 -2 -7 -2 -7 -1 -7 -2 -7 -2 -7 -1 -7 -2 -7 -2 -7 -2 -7 -2 -7 -2 -7 -2 -7 -1 -7 -2 -7 -3 -7 -2 -6 -2 -3 -1zm304 61l14 -147 4 1 7 0 7 1 6 0 7 1 6 0 7 1 7 0 7 1 6 0 7 0 7 0 6 1 7 0 7 0 6 0 7 0 7 0 6 0 7 0 6 0 3 0 1 148 -4 0 -6 0 -7 0 -8 0 -7 0 -8 0 -7 0 -7 0 -8 0 -7 -1 -8 0 -7 0 -7 -1 -8 0 -7 -1 -8 0 -7 -1 -7 0 -8 -1 -7 0 -7 -1 -5 -1zm310 -2l-16 -147 2 0 6 0 5 -1 6 -1 5 0 6 -1 5 -1 6 -1 5 0 6 -1 5 -1 6 -1 5 -1 6 -1 5 -1 6 0 5 -1 5 -1 6 -1 5 -1 6 -1 5 -2 6 -1 5 -1 5 -1 6 -1 31 145 -6 1 -6 1 -6 1 -6 2 -6 1 -6 1 -6 1 -6 1 -6 1 -6 1 -6 1 -6 1 -6 1 -6 1 -7 1 -6 1 -6 1 -6 1 -6 1 -6 0 -6 1 -6 1 -6 1 -6 0 -7 1 -2 0zm304 -65l-46 -140 3 -1 5 -2 5 -2 5 -1 6 -2 5 -2 5 -2 5 -2 5 -1 5 -2 6 -2 5 -2 5 -2 5 -2 5 -2 5 -2 5 -2 5 -2 5 -2 5 -2 5 -2 5 -2 5 -3 5 -2 6 -2 4 -2 1 0 60 135 -1 0 -5 3 -6 2 -5 2 -6 3 -6 2 -5 2 -6 3 -5 2 -6 2 -6 3 -5 2 -6 2 -6 2 -5 2 -6 2 -6 2 -5 3 -6 2 -6 2 -5 2 -6 2 -6 2 -6 2 -5 1 -6 2 -3 1zm284 -125l-74 -129 1 0 5 -3 5 -3 4 -2 5 -3 5 -3 4 -3 5 -2 5 -3 4 -3 5 -3 5 -3 4 -3 5 -3 4 -3 5 -3 5 -3 4 -3 5 -3 4 -3 5 -3 4 -3 5 -3 4 -3 5 -3 4 -4 2 -1 87 120 -3 2 -5 3 -5 4 -5 3 -5 4 -5 3 -5 4 -5 3 -5 3 -5 4 -5 3 -5 3 -5 4 -5 3 -5 3 -6 3 -5 3 -5 4 -5 3 -5 3 -5 3 -5 3 -6 3 -5 3 -5 3 -5 3 -1 1zm252 -181l-98 -110 4 -4 4 -3 4 -4 4 -4 4 -3 4 -4 4 -4 4 -4 4 -3 4 -4 4 -4 4 -4 4 -4 4 -3 4 -4 4 -4 3 -4 4 -4 4 -4 4 -4 4 -4 4 -4 3 -4 4 -4 4 -4 2 -3 109 101 -3 3 -4 4 -4 5 -4 4 -4 4 -5 5 -4 4 -4 5 -4 4 -5 4 -4 5 -4 4 -5 4 -4 4 -4 5 -5 4 -4 4 -5 4 -4 4 -5 4 -4 5 -5 4 -4 4 -5 4 -4 4 -4 3z"/> <path class="fil2" d="M8729 5715c-44,-122 -121,-276 -331,-391 -210,-115 -553,-190 -967,-201 -413,-12 -896,41 -1344,138 -448,97 -860,239 -1093,397 -234,158 -289,333 -314,491 -26,159 -23,301 72,320 95,18 281,-87 706,-210 425,-124 1090,-265 1685,-308 596,-44 1122,11 1380,-7 259,-17 249,-107 206,-229z"/> <path class="fil2" d="M8277 5208c-53,-207 -154,-489 -399,-810 -285,-372 -765,-797 -1131,-979 -367,-182 -619,-122 -853,23 -235,146 -451,376 -630,587 -21,25 -42,49 -62,73 118,85 199,215 219,365 127,-11 209,11 209,77 1,74 -101,204 -219,376 -117,173 -250,390 -347,602 -6,12 -11,25 -17,37 124,-71 264,-128 394,-175 206,-73 421,-130 634,-177 437,-95 911,-152 1358,-140 258,7 583,42 844,141zm-3388 -1151c266,0 481,215 481,481 0,266 -215,481 -481,481 -266,0 -481,-215 -481,-481 0,-266 215,-481 481,-481z"/> <path class="fil3" d="M4988 6355c23,-170 51,-333 88,-478 23,-89 50,-172 79,-251 -45,24 -89,50 -130,78 -176,118 -257,248 -290,454 -7,41 -37,244 28,256 43,9 159,-35 200,-49 8,-4 17,-7 25,-10zm1289 -573c21,-174 64,-348 116,-523 -100,17 -198,36 -294,57 -116,25 -232,53 -346,86 -78,190 -148,380 -197,566 -19,73 -35,146 -49,219 246,-69 501,-127 755,-174 2,-75 6,-153 15,-231zm1576 -210c-33,-126 -75,-250 -121,-373 -106,-12 -209,-18 -302,-21 -127,-3 -256,-1 -385,6 24,74 46,154 66,242 31,138 56,297 77,466 243,-16 486,-16 729,-11 -16,-99 -37,-204 -64,-309zm369 -266c53,212 98,408 129,570 1,6 2,11 3,16 55,1 111,1 166,-3 34,-2 159,-13 174,-55 10,-25 -9,-77 -17,-101 -59,-164 -150,-276 -305,-360 -46,-25 -97,-48 -150,-67zm-1807 -899c316,-101 704,-209 1115,-320 -163,-163 -348,-323 -531,-451 -361,139 -695,277 -931,410 -231,130 -367,255 -477,379 53,18 94,53 95,119 0,49 -28,104 -55,150 222,-92 467,-186 784,-287zm917 320c-527,-26 -961,41 -1351,139 -204,52 -397,111 -583,175 -83,127 -162,259 -230,394 83,-39 169,-72 255,-103 209,-74 424,-132 641,-179 444,-96 915,-154 1370,-141 245,6 520,36 761,110 -34,-111 -76,-215 -126,-316 -258,-39 -507,-68 -737,-79z"/> <path class="fil6" d="M6270 6422c160,0 289,130 289,289 0,160 -129,289 -289,289 -159,0 -289,-129 -289,-289 0,-159 130,-289 289,-289zm1377 -183c160,0 289,130 289,289 0,160 -129,289 -289,289 -159,0 -289,-129 -289,-289 0,-159 130,-289 289,-289z"/> <path class="fil6" d="M4411 10856c8,-110 22,-244 -101,-302 -123,-58 -382,-39 -602,-74 -220,-35 -400,-124 -588,-195 -187,-70 -381,-123 -502,-161 -120,-37 -167,-60 -215,-102 -48,-43 -98,-107 -171,-200 -74,-93 -172,-216 -252,-330 -79,-114 -140,-218 -152,-202 -12,15 26,152 83,274 57,122 134,230 127,279 -8,49 -100,39 -185,-11 -85,-50 -163,-140 -252,-240 -90,-99 -191,-208 -317,-300 -126,-93 -278,-168 -298,-143 -21,26 89,152 208,283 118,130 245,264 314,336 69,72 80,83 49,97 -31,13 -104,30 -206,47 -103,18 -235,37 -354,94 -119,56 -225,150 -177,163 48,12 249,-58 476,-73 228,-15 480,24 691,68 211,43 380,91 594,168 214,77 473,183 730,301 257,119 513,250 694,336 181,85 286,125 341,103 54,-23 57,-107 65,-216zm5189 -823c31,-10 61,-21 91,-33 206,-82 363,-209 530,-319 167,-110 345,-205 454,-268 109,-63 150,-95 187,-148 38,-52 72,-125 124,-232 51,-107 120,-249 172,-377 53,-129 89,-244 104,-231 15,12 9,154 -20,286 -29,131 -81,253 -62,299 18,46 105,17 177,-51 72,-67 128,-172 193,-289 65,-117 140,-245 243,-363 103,-118 234,-225 259,-205 26,21 -53,168 -140,321 -87,154 -181,312 -232,398 -52,86 -60,98 -27,105 33,6 108,6 212,1 104,-5 237,-16 365,13 129,29 253,97 209,120 -44,22 -256,-1 -481,34 -225,35 -463,130 -659,219 -196,88 -350,172 -542,294 -191,122 -420,283 -645,455 -106,81 -210,165 -308,243 -63,-93 -131,-184 -204,-272z"/> <path class="fil6" d="M7441 12648c153,-16 290,96 305,250 16,153 -96,290 -250,305 -153,16 -290,-96 -305,-250 -16,-153 96,-290 250,-305zm-254 1617c153,-15 290,97 306,250 15,154 -97,290 -250,306 -154,15 -291,-97 -306,-250 -15,-154 97,-290 250,-306zm260 -781c154,-15 291,97 306,250 15,154 -97,290 -250,306 -153,15 -290,-97 -306,-250 -15,-154 97,-290 250,-306z"/> <path class="fil7" d="M6639 15872c1792,0 3245,45 3245,101 0,56 -1453,102 -3245,102 -1793,0 -3246,-46 -3246,-102 0,-56 1453,-101 3246,-101z"/> </g> <path class="fil1" d="M1976 8342c68,0 123,56 123,124 0,68 -55,123 -123,123 -68,0 -124,-55 -124,-123 0,-68 56,-124 124,-124zm1411 -1375c263,0 476,213 476,476 0,263 -213,476 -476,476 -263,0 -476,-213 -476,-476 0,-263 213,-476 476,-476zm12365 -71c97,0 176,79 176,176 0,98 -79,177 -176,177 -98,0 -177,-79 -177,-177 0,-97 79,-176 177,-176zm1834 1164c156,0 282,127 282,282 0,156 -126,283 -282,283 -156,0 -282,-127 -282,-283 0,-155 126,-282 282,-282zm-705 4269c214,0 388,174 388,388 0,214 -174,388 -388,388 -215,0 -388,-174 -388,-388 0,-214 173,-388 388,-388zm-3581 -1552c107,0 194,86 194,194 0,107 -87,194 -194,194 -107,0 -194,-87 -194,-194 0,-108 87,-194 194,-194zm3863 -10337c97,0 176,79 176,177 0,97 -79,176 -176,176 -98,0 -177,-79 -177,-176 0,-98 79,-177 177,-177zm564 3881c176,0 318,142 318,317 0,176 -142,318 -318,318 -175,0 -317,-142 -317,-318 0,-175 142,-317 317,-317zm-3333 635c68,0 123,55 123,123 0,68 -55,124 -123,124 -69,0 -124,-56 -124,-124 0,-68 55,-123 124,-123zm2540 5044c263,0 476,214 476,477 0,263 -213,476 -476,476 -263,0 -477,-213 -477,-476 0,-263 214,-477 477,-477zm-7109 -4691c136,0 247,110 247,246 0,137 -111,247 -247,247 -136,0 -247,-110 -247,-247 0,-136 111,-246 247,-246zm2910 1340c108,0 195,87 195,194 0,107 -87,194 -195,194 -107,0 -194,-87 -194,-194 0,-107 87,-194 194,-194zm5786 -882c322,0 582,261 582,582 0,322 -260,582 -582,582 -321,0 -582,-260 -582,-582 0,-321 261,-582 582,-582zm-688 -4304c214,0 388,174 388,388 0,215 -174,388 -388,388 -214,0 -388,-173 -388,-388 0,-214 174,-388 388,-388zm-11536 600c59,0 106,47 106,106 0,58 -47,106 -106,106 -58,0 -106,-48 -106,-106 0,-59 48,-106 106,-106zm-5662 1411c146,0 265,119 265,265 0,146 -119,264 -265,264 -146,0 -264,-118 -264,-264 0,-146 118,-265 264,-265zm2505 1235c224,0 406,181 406,405 0,225 -182,406 -406,406 -224,0 -406,-181 -406,-406 0,-224 182,-405 406,-405zm-2417 -3422c98,0 177,79 177,176 0,98 -79,177 -177,177 -97,0 -176,-79 -176,-177 0,-97 79,-176 176,-176zm441 4657c127,0 230,102 230,229 0,126 -103,229 -230,229 -126,0 -229,-103 -229,-229 0,-127 103,-229 229,-229zm3052 -3422c156,0 282,126 282,282 0,156 -126,282 -282,282 -156,0 -282,-126 -282,-282 0,-156 126,-282 282,-282zm-2293 1728c195,0 353,158 353,353 0,195 -158,353 -353,353 -195,0 -353,-158 -353,-353 0,-195 158,-353 353,-353zm335 -3422c185,0 335,150 335,335 0,185 -150,336 -335,336 -185,0 -335,-151 -335,-336 0,-185 150,-335 335,-335zm-212 1235c302,0 547,245 547,547 0,302 -245,547 -547,547 -302,0 -546,-245 -546,-547 0,-302 244,-547 546,-547zm6862 -1411c97,0 176,79 176,176 0,98 -79,177 -176,177 -98,0 -177,-79 -177,-177 0,-97 79,-176 177,-176zm-1552 600c117,0 211,94 211,211 0,117 -94,212 -211,212 -117,0 -212,-95 -212,-212 0,-117 95,-211 212,-211zm-3034 -741c195,0 353,158 353,353 0,194 -158,352 -353,352 -195,0 -353,-158 -353,-352 0,-195 158,-353 353,-353zm8660 2716c224,0 406,182 406,406 0,224 -182,406 -406,406 -224,0 -405,-182 -405,-406 0,-224 181,-406 405,-406zm2047 4904c243,0 441,197 441,441 0,243 -198,441 -441,441 -244,0 -441,-198 -441,-441 0,-244 197,-441 441,-441zm670 -2646c146,0 264,118 264,264 0,147 -118,265 -264,265 -146,0 -265,-118 -265,-265 0,-146 119,-264 265,-264zm-3616 -388c117,0 211,95 211,212 0,116 -94,211 -211,211 -117,0 -212,-95 -212,-211 0,-117 95,-212 212,-212zm-1923 -2611c205,0 371,166 371,371 0,204 -166,370 -371,370 -204,0 -370,-166 -370,-370 0,-205 166,-371 370,-371zm6244 776c166,0 300,135 300,300 0,166 -134,300 -300,300 -165,0 -299,-134 -299,-300 0,-165 134,-300 299,-300zm-688 -1869c117,0 212,94 212,211 0,117 -95,212 -212,212 -116,0 -211,-95 -211,-212 0,-117 95,-211 211,-211zm-1905 458c254,0 459,206 459,459 0,253 -205,459 -459,459 -253,0 -458,-206 -458,-459 0,-253 205,-459 458,-459zm-1375 -705c97,0 176,79 176,176 0,98 -79,177 -176,177 -98,0 -177,-79 -177,-177 0,-97 79,-176 177,-176zm2575 9701c136,0 247,111 247,247 0,136 -111,247 -247,247 -136,0 -247,-111 -247,-247 0,-136 111,-247 247,-247zm-3034 2328c195,0 353,158 353,353 0,195 -158,353 -353,353 -195,0 -353,-158 -353,-353 0,-195 158,-353 353,-353zm1446 -4974c117,0 212,95 212,212 0,117 -95,212 -212,212 -117,0 -211,-95 -211,-212 0,-117 94,-212 211,-212zm1306 4622c117,0 211,94 211,211 0,117 -94,212 -211,212 -117,0 -212,-95 -212,-212 0,-117 95,-211 212,-211zm-13829 -5221c136,0 247,110 247,246 0,137 -111,247 -247,247 -137,0 -247,-110 -247,-247 0,-136 110,-246 247,-246zm10001 -988c185,0 335,150 335,335 0,185 -150,335 -335,335 -185,0 -335,-150 -335,-335 0,-185 150,-335 335,-335zm776 4974c146,0 265,118 265,265 0,146 -119,264 -265,264 -146,0 -264,-118 -264,-264 0,-147 118,-265 264,-265zm-10883 1623c58,0 106,47 106,106 0,58 -48,105 -106,105 -59,0 -106,-47 -106,-105 0,-59 47,-106 106,-106zm847 -1658c97,0 176,79 176,176 0,97 -79,176 -176,176 -98,0 -177,-79 -177,-176 0,-97 79,-176 177,-176zm16845 -1270c146,0 264,118 264,264 0,146 -118,265 -264,265 -146,0 -265,-119 -265,-265 0,-146 119,-264 265,-264z"/> </g> </g> </svg>