<?xml version="1.0" encoding="utf-8"?>
<!-- Generator: Adobe Illustrator 18.1.1, SVG Export Plug-In . SVG Version: 6.00 Build 0)  -->
<svg version="1.1" id="Layer_1" xmlns="http://www.w3.org/2000/svg" xmlns:xlink="http://www.w3.org/1999/xlink" x="0px" y="0px"
	 viewBox="0 0 2000 1600" enable-background="new 0 0 2000 1600" xml:space="preserve">
<g>
	<g>
		<rect fill="#FCF498" width="2000" height="1600"/>
		<linearGradient id="SVGID_1_" gradientUnits="userSpaceOnUse" x1="1000" y1="1274.0601" x2="1000" y2="1475.8896">
			<stop  offset="0" style="stop-color:#DCD87F"/>
			<stop  offset="0.158" style="stop-color:#E3DE84;stop-opacity:0.842"/>
			<stop  offset="0.654" style="stop-color:#F5EC93;stop-opacity:0.346"/>
			<stop  offset="1" style="stop-color:#FCF498;stop-opacity:0"/>
		</linearGradient>
		<rect y="1274.1" fill="url(#SVGID_1_)" width="2000" height="201.8"/>
	</g>
	<g>
		<g>
			<linearGradient id="SVGID_2_" gradientUnits="userSpaceOnUse" x1="999.9701" y1="885.92" x2="999.9701" y2="1274.0601">
				<stop  offset="0" style="stop-color:#536078"/>
				<stop  offset="1" style="stop-color:#323A48"/>
			</linearGradient>
			<rect x="893.7" y="885.9" fill="url(#SVGID_2_)" width="212.6" height="388.1"/>
			<linearGradient id="SVGID_3_" gradientUnits="userSpaceOnUse" x1="998.865" y1="1219.965" x2="998.865" y2="1274.1451">
				<stop  offset="0" style="stop-color:#536078"/>
				<stop  offset="1" style="stop-color:#323A48"/>
			</linearGradient>
			<path fill="url(#SVGID_3_)" d="M1261.6,1274.1H736.2l0,0c0-29.9,24.2-54.2,54.2-54.2h417.1
				C1237.3,1219.9,1261.6,1244.2,1261.6,1274.1L1261.6,1274.1z"/>
		</g>
		<g>
			<linearGradient id="SVGID_4_" gradientUnits="userSpaceOnUse" x1="1000.03" y1="267.38" x2="1000.03" y2="1060.7601">
				<stop  offset="0" style="stop-color:#536078"/>
				<stop  offset="1" style="stop-color:#323A48"/>
			</linearGradient>
			<rect x="312.5" y="267.4" fill="url(#SVGID_4_)" width="1375.1" height="793.4"/>
			<linearGradient id="SVGID_5_" gradientUnits="userSpaceOnUse" x1="1000.03" y1="315.44" x2="1000.03" y2="1012.7001">
				<stop  offset="0" style="stop-color:#222754"/>
				<stop  offset="1" style="stop-color:#151515"/>
			</linearGradient>
			<rect x="355.7" y="315.4" fill="url(#SVGID_5_)" width="1288.7" height="697.3"/>
		</g>
		<rect x="1022.4" y="736.3" fill="#13B255" width="56.7" height="155.9"/>
		<rect x="1130.1" y="688.2" fill="#EDE70C" width="56.7" height="204.1"/>
		<rect x="1237.8" y="640" fill="#45AFE3" width="56.7" height="252.2"/>
		<rect x="1345.5" y="640" fill="#29429B" width="56.7" height="252.2"/>
		<rect x="1453.1" y="581.9" fill="#ED1F24" width="56.7" height="310.3"/>
		<linearGradient id="SVGID_6_" gradientUnits="userSpaceOnUse" x1="1050.7301" y1="736.34" x2="1050.7301" y2="892.22">
			<stop  offset="0" style="stop-color:#FFFFFF;stop-opacity:0"/>
			<stop  offset="1" style="stop-color:#1B1947;stop-opacity:0.2"/>
		</linearGradient>
		<rect x="1022.4" y="736.3" fill="url(#SVGID_6_)" width="56.7" height="155.9"/>
		<linearGradient id="SVGID_7_" gradientUnits="userSpaceOnUse" x1="1158.4301" y1="688.16" x2="1158.4301" y2="892.22">
			<stop  offset="0" style="stop-color:#FFFFFF;stop-opacity:0"/>
			<stop  offset="1" style="stop-color:#1B1947;stop-opacity:0.2"/>
		</linearGradient>
		<rect x="1130.1" y="688.2" fill="url(#SVGID_7_)" width="56.7" height="204.1"/>
		<linearGradient id="SVGID_8_" gradientUnits="userSpaceOnUse" x1="1266.1301" y1="639.98" x2="1266.1301" y2="892.2201">
			<stop  offset="0" style="stop-color:#FFFFFF;stop-opacity:0"/>
			<stop  offset="1" style="stop-color:#1B1947;stop-opacity:0.2"/>
		</linearGradient>
		<rect x="1237.8" y="640" fill="url(#SVGID_8_)" width="56.7" height="252.2"/>
		<linearGradient id="SVGID_9_" gradientUnits="userSpaceOnUse" x1="1373.8301" y1="639.98" x2="1373.8301" y2="892.2201">
			<stop  offset="0" style="stop-color:#FFFFFF;stop-opacity:0"/>
			<stop  offset="1" style="stop-color:#1B1947;stop-opacity:0.2"/>
		</linearGradient>
		<rect x="1345.5" y="640" fill="url(#SVGID_9_)" width="56.7" height="252.2"/>
		<linearGradient id="SVGID_10_" gradientUnits="userSpaceOnUse" x1="1481.4102" y1="581.9" x2="1481.4102" y2="892.22">
			<stop  offset="0" style="stop-color:#FFFFFF;stop-opacity:0"/>
			<stop  offset="1" style="stop-color:#1B1947;stop-opacity:0.2"/>
		</linearGradient>
		<rect x="1453.1" y="581.9" fill="url(#SVGID_10_)" width="56.7" height="310.3"/>
		<path fill="#7495A8" d="M1200.9,367.1H770.8c-4.1,0-7.4-3.4-7.4-7.4l0,0c0-4.1,3.4-7.4,7.4-7.4h430.1c4.1,0,7.4,3.4,7.4,7.4l0,0
			C1208.4,363.8,1205.1,367.1,1200.9,367.1z"/>
		<path fill="#7495A8" d="M1176.5,398.7H795.4c-4.1,0-7.4-3.4-7.4-7.4l0,0c0-4.1,3.4-7.4,7.4-7.4h381.1c4.1,0,7.4,3.4,7.4,7.4l0,0
			C1183.9,395.4,1180.5,398.7,1176.5,398.7z"/>
		<path fill="#7495A8" d="M1498.5,959.7h-435.2c-2.7,0-4.9-2.2-4.9-4.9l0,0c0-2.7,2.2-4.9,4.9-4.9h435.2c2.7,0,4.9,2.2,4.9,4.9l0,0
			C1503.4,957.5,1501.2,959.7,1498.5,959.7z"/>
		<path fill="#7495A8" d="M1434.5,987h-307.3c-2.7,0-4.9-2.2-4.9-4.9l0,0c0-2.7,2.2-4.9,4.9-4.9h307.3c2.7,0,4.9,2.2,4.9,4.9l0,0
			C1439.4,984.8,1437.2,987,1434.5,987z"/>
		<g>
			<path fill="#FEE035" d="M586.1,596.2c47.3-40.9,118.8-38.9,163.7,6c13.3,13.3,22.8,28.9,28.6,45.5l81.9-22
				c-9.5-30.5-26.5-59.3-50.6-83.5c-77.9-77.9-203.1-80-283.5-6.1L586.1,596.2z"/>
			<path fill="#FAAA5E" d="M625.2,800.9c-16.6-5.8-32.2-15.3-45.5-28.6c-44.9-44.9-46.9-116.4-6-163.7l-59.9-59.9
				c-73.9,80.4-71.9,205.6,6.1,283.5c24.2,24.2,52.9,41,83.5,50.6L625.2,800.9z"/>
			<path fill="#577FC0" d="M782.9,664.7c7.2,37.8-3.8,78.4-33.1,107.6s-69.8,40.3-107.6,33.1l-22,81.9
				c66.1,14.6,138.1-3.7,189.4-55.1s69.8-123.4,55.1-189.4L782.9,664.7z"/>
		</g>
		<g>
			<radialGradient id="SVGID_11_" cx="667.1071" cy="679.595" r="212.2911" gradientUnits="userSpaceOnUse">
				<stop  offset="0" style="stop-color:#FFFFFF;stop-opacity:0"/>
				<stop  offset="0.1248" style="stop-color:#E8E7D1;stop-opacity:2.496424e-002"/>
				<stop  offset="0.3045" style="stop-color:#D0D19F;stop-opacity:6.090168e-002"/>
				<stop  offset="0.4769" style="stop-color:#BDC079;stop-opacity:9.538762e-002"/>
				<stop  offset="0.6372" style="stop-color:#AFB45B;stop-opacity:0.1274"/>
				<stop  offset="0.7826" style="stop-color:#A5AC46;stop-opacity:0.1565"/>
				<stop  offset="0.9083" style="stop-color:#9FA83B;stop-opacity:0.1817"/>
				<stop  offset="1" style="stop-color:#9DA639;stop-opacity:0.2"/>
			</radialGradient>
			<path fill="url(#SVGID_11_)" d="M586.1,596.2c47.3-40.9,118.8-38.9,163.7,6c13.3,13.3,22.8,28.9,28.6,45.5l81.9-22
				c-9.5-30.5-26.5-59.3-50.6-83.5c-77.9-77.9-203.1-80-283.5-6.1L586.1,596.2z"/>
			<radialGradient id="SVGID_12_" cx="667.1071" cy="679.595" r="212.2911" gradientUnits="userSpaceOnUse">
				<stop  offset="0" style="stop-color:#FFFFFF;stop-opacity:0"/>
				<stop  offset="0.1248" style="stop-color:#E8E7D1;stop-opacity:2.496424e-002"/>
				<stop  offset="0.3045" style="stop-color:#D0D19F;stop-opacity:6.090168e-002"/>
				<stop  offset="0.4769" style="stop-color:#BDC079;stop-opacity:9.538762e-002"/>
				<stop  offset="0.6372" style="stop-color:#AFB45B;stop-opacity:0.1274"/>
				<stop  offset="0.7826" style="stop-color:#A5AC46;stop-opacity:0.1565"/>
				<stop  offset="0.9083" style="stop-color:#9FA83B;stop-opacity:0.1817"/>
				<stop  offset="1" style="stop-color:#9DA639;stop-opacity:0.2"/>
			</radialGradient>
			<path fill="url(#SVGID_12_)" d="M625.2,800.9c-16.6-5.8-32.2-15.3-45.5-28.6c-44.9-44.9-46.9-116.4-6-163.7l-59.9-59.9
				c-73.9,80.4-71.9,205.6,6.1,283.5c24.2,24.2,52.9,41,83.5,50.6L625.2,800.9z"/>
			<radialGradient id="SVGID_13_" cx="667.1071" cy="679.595" r="212.2911" gradientUnits="userSpaceOnUse">
				<stop  offset="0" style="stop-color:#FFFFFF;stop-opacity:0"/>
				<stop  offset="0.1248" style="stop-color:#E8E7D1;stop-opacity:2.496424e-002"/>
				<stop  offset="0.3045" style="stop-color:#D0D19F;stop-opacity:6.090168e-002"/>
				<stop  offset="0.4769" style="stop-color:#BDC079;stop-opacity:9.538762e-002"/>
				<stop  offset="0.6372" style="stop-color:#AFB45B;stop-opacity:0.1274"/>
				<stop  offset="0.7826" style="stop-color:#A5AC46;stop-opacity:0.1565"/>
				<stop  offset="0.9083" style="stop-color:#9FA83B;stop-opacity:0.1817"/>
				<stop  offset="1" style="stop-color:#9DA639;stop-opacity:0.2"/>
			</radialGradient>
			<path fill="url(#SVGID_13_)" d="M782.9,664.7c7.2,37.8-3.8,78.4-33.1,107.6s-69.8,40.3-107.6,33.1l-22,81.9
				c66.1,14.6,138.1-3.7,189.4-55.1s69.8-123.4,55.1-189.4L782.9,664.7z"/>
		</g>
		<g>
			<path fill="#9DCAE3" d="M642.4,641.1l13.3,13.3v25.7l-13.3,13.3h-23.6l-13.3-13.3v-25.7l13.3-13.3H642.4z M638.4,658.5h-15.6
				v17.7h15.6V658.5z M673.6,641.1l-34.9,90.5h19.4l34.9-90.5H673.6z M713.2,679.3l13.2,13.4v25.6l-13.2,13.3h-23.7l-13.2-13.3
				v-25.6l13.2-13.4H713.2z M709.1,696.6h-15.6v17.7h15.6V696.6z"/>
		</g>
		<g>
			
				<polyline fill="none" stroke="#EF4376" stroke-width="12" stroke-linecap="round" stroke-linejoin="round" stroke-miterlimit="10" points="
				1036.1,610 1266.1,501.9 1373.8,501.9 1481.5,450.9 			"/>
			<polygon fill="#EF4376" points="1473.5,436.1 1505.9,439.4 1486.8,465.8 			"/>
		</g>
		<circle fill="#EF4376" cx="1266.1" cy="500.9" r="13"/>
		<circle fill="#EF4376" cx="1373.8" cy="500.9" r="13"/>
		<g>
			
				<polyline fill="none" stroke="#66BF71" stroke-width="12" stroke-linecap="round" stroke-linejoin="round" stroke-miterlimit="10" points="
				1036.1,659.1 1266.1,551.1 1373.8,551.1 1481.5,500.1 			"/>
			<polygon fill="#66BF71" points="1473.5,485.2 1505.9,488.5 1486.8,514.9 			"/>
		</g>
		<circle fill="#66BF71" cx="1266.1" cy="550.9" r="13"/>
		<circle fill="#66BF71" cx="1373.8" cy="550.9" r="13"/>
		<path fill="#F171AB" d="M449,367c-14,0-25.4,11.3-25.4,25.4c0,14,11.3,25.4,25.4,25.4c14,0,25.3-11.3,25.3-25.4
			C474.4,378.3,463,367,449,367z M449,405.9c-7.5,0-13.6-6.1-13.6-13.6c0-7.5,6.1-13.6,13.6-13.6c7.5,0,13.6,6.1,13.6,13.6
			C462.6,399.8,456.5,405.9,449,405.9z"/>
		<path fill="#F171AB" d="M522.5,367c-14,0-25.4,11.3-25.4,25.4c0,14,11.3,25.4,25.4,25.4c14,0,25.3-11.3,25.3-25.4
			C547.8,378.3,536.5,367,522.5,367z M522.5,405.9c-7.5,0-13.6-6.1-13.6-13.6c0-7.5,6.1-13.6,13.6-13.6c7.5,0,13.6,6.1,13.6,13.6
			C536.1,399.8,530,405.9,522.5,405.9z"/>
	</g>
</g>
</svg>
