<?xml version="1.0" encoding="UTF-8"?>
<svg enable-background="new -82.42 -131.797 581.816 568.097" viewBox="-82.42 -131.797 581.816 568.097" xmlns="http://www.w3.org/2000/svg">
 <defs>
  <linearGradient id="e" x2="0" y1="436.3" y2="-131.8" gradientUnits="userSpaceOnUse">
   <stop stop-color="#8fb8df" offset="0"/>
   <stop stop-color="#86b1db" offset=".1094"/>
   <stop stop-color="#6c9ecf" offset=".2912"/>
   <stop stop-color="#437fbb" offset=".5217"/>
   <stop stop-color="#3a78b7" offset=".5674"/>
   <stop stop-color="#245199" offset="1"/>
  </linearGradient>
  <linearGradient id="k" x1="176" x2="216" gradientUnits="userSpaceOnUse">
   <stop stop-color="#1f1e21" offset=".6813"/>
   <stop stop-color="#28272a" offset=".7161"/>
   <stop stop-color="#414143" offset=".7737"/>
   <stop stop-color="#58595b" offset=".8187"/>
   <stop stop-color="#1f1e21" offset=".956"/>
  </linearGradient>
  <linearGradient id="i" x1="178.01" x2="218.9" gradientUnits="userSpaceOnUse">
   <stop stop-color="#1f1e21" offset=".6813"/>
   <stop stop-color="#28272a" offset=".7161"/>
   <stop stop-color="#414143" offset=".7737"/>
   <stop stop-color="#58595b" offset=".8187"/>
   <stop stop-color="#1f1e21" offset=".956"/>
  </linearGradient>
  <linearGradient id="d" x1="178.01" x2="218.9" gradientUnits="userSpaceOnUse">
   <stop offset=".6813"/>
   <stop stop-color="#28272a" offset=".7161"/>
   <stop stop-color="#414143" offset=".7737"/>
   <stop stop-color="#58595b" offset=".8187"/>
   <stop offset=".956"/>
  </linearGradient>
  <linearGradient id="b" x1="179.61" x2="215.17" gradientUnits="userSpaceOnUse">
   <stop offset=".6813"/>
   <stop stop-color="#28272a" offset=".7161"/>
   <stop stop-color="#414143" offset=".7737"/>
   <stop stop-color="#58595b" offset=".8187"/>
   <stop offset=".956"/>
  </linearGradient>
  <linearGradient id="a" x1="179.63" x2="215.17" gradientUnits="userSpaceOnUse">
   <stop offset=".6813"/>
   <stop stop-color="#28272a" offset=".7161"/>
   <stop stop-color="#414143" offset=".7737"/>
   <stop stop-color="#58595b" offset=".8187"/>
   <stop offset=".956"/>
  </linearGradient>
  <linearGradient id="c" x1="179.61" x2="215.17" gradientUnits="userSpaceOnUse">
   <stop offset=".6813"/>
   <stop stop-color="#28272a" offset=".7161"/>
   <stop stop-color="#414143" offset=".7737"/>
   <stop stop-color="#58595b" offset=".8187"/>
   <stop offset=".956"/>
  </linearGradient>
  <radialGradient id="f" cx="83.555" cy="393.99" r="90.185" gradientTransform="matrix(1 0 0 -1 114.94 468.01)" gradientUnits="userSpaceOnUse">
   <stop stop-color="#fff" offset="0"/>
   <stop offset=".6538"/>
  </radialGradient>
  <radialGradient id="h" cx="90.712" cy="576.31" r="12.622" gradientTransform="matrix(1 0 0 -1.844 114.94 1002.6)" gradientUnits="userSpaceOnUse">
   <stop stop-color="#585858" offset="0"/>
   <stop offset=".3846"/>
  </radialGradient>
  <radialGradient id="g" cx="95.5" cy="475.3" r="28.067" gradientTransform="matrix(1 0 0 -.9269 114.94 425.03)" gradientUnits="userSpaceOnUse">
   <stop stop-color="#585858" offset="0"/>
   <stop offset=".3846"/>
  </radialGradient>
  <radialGradient id="j" cx="83.055" cy="127.05" r="26.748" fx="101.71" fy="118.59" gradientTransform="matrix(1 0 0 -1 114.94 468.01)" gradientUnits="userSpaceOnUse">
   <stop stop-color="#585858" offset="0"/>
   <stop offset=".3846"/>
  </radialGradient>
 </defs>
 <path d="m-82.42-131.8h581.82v568.1h-581.82z" fill="url(#e)"/>
 <path d="m155 109.52 20 147.01" fill="none" stroke="#1f1e21" stroke-linecap="round" stroke-linejoin="round" stroke-width="7"/>
 <path d="m181.05 256.52a6.053 6.053 0 1 0 -12.106 0 6.053 6.053 0 1 0 12.106 0" fill="#1f1e21"/>
 <path d="m161.05 109.52a6.053 6.053 0 1 0 -12.106 0 6.053 6.053 0 1 0 12.106 0" fill="#1f1e21"/>
 <path d="m136 237.52-60-178.01 79 50 20 147.01z" fill="#fff" opacity=".15"/>
 <path d="m261 249.52 60.001-158.01-166 18 20 147.01z" fill="#fff" opacity=".15"/>
 <path d="m155 109.52-79-50 177-21 68.001 53z" fill="url(#f)"/>
 <path d="m175 256.52-39-19 89-8 36 20z" fill="#1f1e21" stroke="#000"/>
 <path d="m136 237.52-60-178.01 177-21-28 191.01z" fill="#fff" opacity=".1"/>
 <path d="m76 59.517 126-54 51 33z"/>
 <path d="m171,259.524c-1.41,2.115-2,2.996-2,5.5 0,2.199 1.54,4.58 2.5,6.5 .889,1.775 2.583,3.082 3.981,4.481 1.451,1.451 2.798,2.98 4.429,4.285 1.704,1.363 2.768,2.83 4.127,4.529 1.011,1.265 3.744,3.608 4.067,5.224 .912,4.562 1.896,8.649 1.896,13.31 0-.015 4,1.243 4-1.095 0-2.536-.396-4.715-.896-7.215-.875-4.371-1.777-7.86-4.609-11.399-2.866-3.583-6.104-6.729-9.347-9.971-2.656-2.656-6.708-5.942-6.148-10.148 .328-2.458 2.599-4.896 4-7l-2-3-2,3 2-3-4,5.999 2-3-2,3 2-3" fill="#1f1e21" stroke="#000"/>
 <path d="m220,288.524c1.845-1.844 4.913-4.73 7.156-5.954 3.202-1.746 5.309-3.572 8.51-5.318 5.343-2.914 10.952-5.299 16.174-8.432 2.569-1.541 5.64-1.832 8.16-3.296 2.223-1.289 4.983-3.342 7-5 2.487-2.045 3.897-3.577.963-5.777-2.927-2.195-5.472-3.059-8.963-4.223 1.133-2.266 1.062-4.47 3.557-3.223 2.304,1.152 3.733,1.794 6.123,2.749 2.013.805 4.609,2.139 5.32,4.474 .375,1.23.401,4.838-1.166,6.11-3.547,2.879-6.67,5.814-10.834,7.89-3.762,1.875-7.734,3.368-11.516,5.258-8.72,4.36-17.594,8.5-25.123,14.774-1.879,1.564-3.106,2.961-4.584,4.931-1.27,1.692-.777,3.964-.777,6.037 0,2.903-1.405,2-4,2-1.871,0-1.104-3.479-.784-5.08 .803-4.013 1.858-4.993 4.784-7.92" fill="#1f1e21" stroke="#000"/>
 <path d="m127.237,242.688c.45-2.162 2.399-3.104 4.566-3.465 2.411-.401 5.732-.089 4.696-3.199-.852-2.557-3.495-1.072-5.92-.726-2.285.326-4.297,1.312-6.439,2.17-1.401.56-2.225,3.704-2.141,5.056 .169,2.734 1.236,4.235 3.051,6.051 2.929,2.928 5.866,5.894 9.332,8.204 7.842,5.228 16.028,10.165 23.618,15.745 3.44,2.529 7.239,5.239 10.258,8.258 2.065,2.065 8.742,7.102 8.742,10.367v6.108c0,2.145 2.174,1.267 4,1.267 1.812,0 1.146-3.41 1-5-.129-1.396-.353-3.921-1.069-5.116-4.667-7.778-11.021-12.678-18.272-17.95-6.589-4.793-13.497-9.159-20.276-13.679-3.261-2.174-6.085-4.677-9.469-6.707-1.872-1.123-6.159-5.065-5.677-7.384z" fill="#1f1e21" stroke="#000"/>
 <path d="m231.544,232.467c-.206-1.707-.099-3.22-1.855-4.099-1.472-.735-2.903-1.249-4.465-1.77-.536-.179-1.91,3.302-2.224,3.926 2.278,1.139 4.06,1.291 4,4-.054,2.485-.549,4.335-1.886,6.341-.998,1.497-1.459,3.566-2.376,5.095-1.252,2.088-2.539,4.066-3.442,6.324-3.354,8.387-8.6,15.95-12.171,24.281-1.984,4.633-3.125,8.785-3.125,13.874 0,1.062-.578,5.507 0,6.085 .358.358 2.838,0 3.375,0 1.183,0 .625-1.741.625-2.733 0-2.035-.309-4.271 0-6.267 .318-2.06 1.455-4.093 2.029-6.102 1.414-4.949 2.936-8.635 5.435-13.134 2.975-5.353 5.416-11.052 8.146-16.57 1.494-3.02 3.558-5.53 5.077-8.569 1.036-2.07 3.133-8.4 2.857-10.682z" fill="#1f1e21" stroke="#000"/>
 <path d="m176,15.517c-.668,2.671-1.302,3.547.213,5.819 1.198,1.797 3.048,3.146 5.044,3.944 3.833,1.533 8.968,3.236 13.133,3.236 8.932,0 18.913,1.349 27.167-2.778 3.78-1.891 9.541-4.221 6.425-9.445-2.145-3.592-6.422-5.138-10.384-6.128-8.974-2.243-17.549-3.412-26.672-1.131-5.73,1.434-10.172,2.918-14.926,6.483"/>
 <path d="m225.67 114.07c0 18.512-11.126 33.522-24.854 33.522-13.707 0-24.833-15.011-24.833-33.522 0-18.516 11.126-33.523 24.833-33.523 13.728 0 24.854 15.008 24.854 33.523z" fill="#fff"/>
 <path d="m211 75.517c0 1.742-4.479 3.157-9.997 3.157-5.544 0-10.031-1.415-10.031-3.157 0-1.734 4.487-3.151 10.031-3.151 5.518 0 9.997 1.417 9.997 3.151z" fill="#fff"/>
 <path d="m211 85.511c0 1.742-4.479 3.157-9.997 3.157-5.544 0-10.031-1.415-10.031-3.157 0-1.734 4.487-3.151 10.031-3.151 5.518 0 9.997 1.417 9.997 3.151z" fill="#fff"/>
 <path d="m190.97 75.517h20.028v9.994h-20.028z" fill="#fff"/>
 <path d="m136 237.52-60-178.01" fill="none" stroke="#000" stroke-linecap="round" stroke-linejoin="round" stroke-width="7"/>
 <path d="m82.053 59.517a6.053 6.053 0 1 0 -12.106 0 6.053 6.053 0 1 0 12.106 0" fill="#1f1e21" stroke="#000"/>
 <path d="m142.05 237.52a6.053 6.053 0 1 0 -12.106 0 6.053 6.053 0 1 0 12.106 0" fill="#1f1e21" stroke="#000"/>
 <path d="m225 229.52 28-191.01" fill="none" stroke="#000" stroke-linecap="round" stroke-linejoin="round" stroke-width="7"/>
 <path d="m259.05 38.517a6.053 6.053 0 1 0 -12.106 0 6.053 6.053 0 1 0 12.106 0" fill="#1f1e21" stroke="#000"/>
 <path d="m231.05 229.52a6.053 6.053 0 1 0 -12.106 0 6.053 6.053 0 1 0 12.106 0" fill="#1f1e21" stroke="#000"/>
 <path d="m321 91.517-60.001 158.01" fill="none" stroke="#000" stroke-linecap="round" stroke-linejoin="round" stroke-width="7"/>
 <path d="m267.05 249.52a6.053 6.053 0 1 0 -12.106 0 6.053 6.053 0 1 0 12.106 0" fill="#1f1e21" stroke="#000"/>
 <path d="m327.06 91.517a6.053 6.053 0 1 0 -12.106 0 6.053 6.053 0 1 0 12.106 0" fill="#1f1e21" stroke="#000"/>
 <path d="m197.811,355.814c9.421,0 17.116,1.227 17.355,2.741l.834-59.031-35-1-.604,59.983c.395-1.492 8.024-2.693 17.415-2.693z" fill="url(#k)"/>
 <path d="m206.04 358.63h12.863v-3.194c-0.43-1.762-9.416-3.18-20.403-3.18-11.07 0-20.061 1.418-20.491 3.18v3.194h12.902" fill="url(#i)"/>
 <path d="m208.223-44.927c1.496-2.595 4.222-8.713 3.748-11.741-.705-4.51-2.299-8.469-4.339-12.549-1.005-2.01-2.215-3.903-3.37-5.83-1.636-2.724-3.734,2.019-4.36,3.062-2.283,3.804-4.318,7.168-5.401,11.502-1.157,4.63-.041,8.376 1.427,12.778 .952,2.859 2.052,2.259.387,5.035-1.278,2.13-2.717,4.06-4.209,6.05-.938,1.249-2.104,3.9-2.104,5.45 0,2.428.869,1.688 3.155,1.688h18.69c.45,0 2.813.334 3.154,0 .85-.832-.782-4.567-1.155-5.312-1.729-3.455-3.856-6.687-5.623-10.133" fill="url(#h)"/>
 <path d="m188-28.483c-1.429,2.858 0,2.958 0,5.688 0,.596-4.319,3.633-5.051,4.363-2.944,2.944-5.589,6.856-7.334,10.622-1.838,3.967-1.615,8.325-1.615,12.593 0,4.899 1.514,8.248 5,11.734 2.066,2.066 6.562,1.126 9.336,1.189l19.854.451c4.945.112 9.89.225 14.834.337 2.947.067 5.521-5.158 6.132-7.603 1.572-6.29 1.256-12.846-1.156-18.875-1.308-3.269-3.05-5.549-5.53-8.031-1.455-1.455-5.47-4.498-5.47-6.781 0-1.757 1.25-3.188.5-4.688-.775-1.553-2.062-2.471-3.381-3.575-1.969-1.648-5.928-2.425-8.415-2.425-3.251,0-6.542-.291-9.704.5-3.567.893-5.416,1.918-8,4.501l1-1" fill="url(#g)"/>
 <path d="m198.5 294.06c-11.322 0-20.491 1.779-20.491 3.962v19.956h40.895v-19.956c-1e-3 -2.183-9.167-3.962-20.404-3.962z" fill="url(#d)"/>
 <path d="m218.9 317.98c0 2.166-9.166 3.941-20.403 3.941-11.322 0-20.491-1.775-20.491-3.941 0-2.184 9.169-3.962 20.491-3.962 11.237 1e-3 20.403 1.78 20.403 3.962z"/>
 <path d="m198.5 319.47c-11.322 0-20.491 1.625-20.491 3.617v35.543h40.895v-35.543c-1e-3 -1.992-9.167-3.617-20.404-3.617z" fill="url(#d)"/>
 <path d="m218.9 358.63c0 1.812-9.166 3.293-20.403 3.293-11.322 0-20.491-1.481-20.491-3.293 0-1.817 9.169-3.303 20.491-3.303 11.237 1e-3 20.403 1.486 20.403 3.303z"/>
 <path d="m180.4 358.51-3e-3 0.233-0.78 77.56z" fill="url(#b)"/>
 <path d="m180.4 358.51-3e-3 0.233-0.78 77.56z" fill="url(#b)"/>
 <path d="m215.17 358.56-1.097 77.744h1e-3l1.094-77.593z" fill="url(#a)"/>
 <path d="m215.17 358.56-1.097 77.744h1e-3l1.094-77.593z" fill="url(#a)"/>
 <path d="m214.07,436.3 1.098-77.744c-.239-1.516-7.935-2.741-17.355-2.741-9.392,0-17.021,1.2-17.415,2.692l-.783,77.793h34.455z" fill="url(#c)"/>
 <path d="m214.07,436.3 1.098-77.744c-.239-1.516-7.935-2.741-17.355-2.741-9.392,0-17.021,1.2-17.415,2.692l-.783,77.793h34.455z" fill="url(#c)"/>
 <path d="m230.97 341.04c0 10.146-14.77 18.461-32.973 18.461s-32.975-8.313-32.975-18.461c0-10.299 14.77-18.615 32.975-18.615 18.204-1e-3 32.973 8.316 32.973 18.615z" fill="url(#j)"/>
</svg>
